<svg width="501" height="501" viewBox="0 0 501 501" fill="none" xmlns="http://www.w3.org/2000/svg">
<path fill-rule="evenodd" clip-rule="evenodd" d="M435.078 40.6067C430.364 41.1781 414.649 43.0358 400.078 44.7501C336.078 52.1787 328.506 59.0358 358.649 81.8929L376.506 95.4644L226.506 315.465C185.792 186.036 188.078 187.036 146.364 235.607C118.221 268.607 85.7921 308.607 44.3636 361.893C5.36352 411.893 5.22052 412.179 17.792 413.322C28.2206 414.179 28.2211 414.179 72.6497 358.893C134.221 282.179 172.935 235.179 174.506 235.036C175.078 235.036 181.078 251.465 187.935 271.75C219.506 364.465 219.792 364.607 254.935 311.464C286.078 264.322 390.506 115.464 397.649 101.179C403.649 89.6072 397.078 84.7497 369.364 62.8925C437.221 54.6068 427.649 55.3211 446.078 54.3211C463.935 142.607 465.935 143.75 465.078 144.465C464.364 145.179 441.506 127.893 436.221 122.607C424.364 110.75 421.364 113.607 375.935 180.893C333.935 243.036 219.506 409.322 216.649 413.607C213.078 418.893 211.364 420.607 211.364 418.607C211.364 410.179 175.792 311.75 171.506 308.322C164.364 302.465 156.649 306.465 145.506 321.893C135.65 335.607 100.221 383.036 76.5064 414.036C44.0778 456.607 41.3637 462.322 53.078 462.322C62.078 462.322 68.2207 455.179 112.221 394.465C165.935 320.322 158.792 324.893 170.649 357.036C197.792 430.75 200.792 428.464 203.221 438.322C205.078 446.036 214.506 444.75 223.078 435.464C230.649 427.464 238.649 416.036 278.221 358.179C366.649 228.607 425.506 143.893 427.221 143.893C427.792 143.893 432.221 146.893 436.792 150.75C461.649 170.75 482.078 174.179 489.792 159.75C491.935 155.607 470.935 65.4642 464.221 50.3214C460.221 40.1785 466.364 36.7495 435.078 40.6067Z" fill="#FF7844"/>
</svg>
