<?xml version="1.0" encoding="iso-8859-1"?>
<!-- Generator: Adobe Illustrator 19.0.0, SVG Export Plug-In . SVG Version: 6.00 Build 0)  -->
<svg version="1.1" id="Layer_1" xmlns="http://www.w3.org/2000/svg" xmlns:xlink="http://www.w3.org/1999/xlink" x="0px" y="0px" viewBox="0 0 489 489" style="enable-background:new 0 0 489 489;" xml:space="preserve">
	<g>
		<g>
			<path d="M354.8,134.2c-8.3-8.3-20.8-8.3-29.1,0l-81.2,81.2l-81.1-81.1c-8.3-8.3-20.8-8.3-29.1,0s-8.3,20.8,0,29.1l81.1,81.1
			l-81.1,81.1c-8.3,8.3-8.6,21.1,0,29.1c6.5,6,18.8,10.4,29.1,0l81.1-81.1l81.1,81.1c12.4,11.7,25,4.2,29.1,0
			c8.3-8.3,8.3-20.8,0-29.1l-81.1-81.1l81.1-81.1C363.1,155,363.1,142.5,354.8,134.2z" fill="#fff" />
		</g>
	</g>
	<g></g>
	<g></g>
	<g></g>
	<g></g>
	<g></g>
	<g></g>
	<g></g>
	<g></g>
	<g></g>
	<g></g>
	<g></g>
	<g></g>
	<g></g>
	<g></g>
	<g></g>
</svg>