<svg xmlns="http://www.w3.org/2000/svg" width="374.5358679522403" height="67.73197578389338" viewBox="0 0 374.5358679522403 67.73197578389338" class="css-1j8o68f">
  <defs id="SvgjsDefs1387"></defs>
  <g id="SvgjsG1388" featurekey="nRdZyp-0" transform="matrix(0.8291848583695124,0,0,0.8291848583695124,-6.227180057684997,-7.593674135849513)" fill="#ff7844">
    <path xmlns="http://www.w3.org/2000/svg" d="M64.427,49.68c0-7.638-6.192-13.83-13.83-13.83s-13.83,6.192-13.83,13.83c0,7.638,6.192,13.83,13.83,13.83  S64.427,57.318,64.427,49.68z M48.361,41.848c-2.372,1.271-4.085,3.133-5.158,4.575c-0.407,0.547-1.273,0.165-1.14-0.503  c0.817-4.081,3.712-5.111,5.949-5.269C48.695,40.603,48.964,41.525,48.361,41.848z M39.273,36.327l-5.169-4.885  c0.602-1.094,0.975-2.332,0.975-3.669c0-4.235-3.43-7.665-7.666-7.665s-7.672,3.428-7.672,7.665s3.435,7.668,7.672,7.668  c1.493,0,2.875-0.445,4.054-1.183l5.162,4.88C37.408,38.106,38.289,37.161,39.273,36.327z M26.943,23.318  c-1.745,0.935-3.004,2.304-3.793,3.365c-0.299,0.402-0.937,0.121-0.838-0.37c0.601-3.001,2.73-3.759,4.375-3.875  C27.188,22.402,27.386,23.08,26.943,23.318z M61.138,35.716l6.869-11.559c0.676,0.193,1.378,0.333,2.114,0.333  c4.244,0,7.674-3.432,7.674-7.668c0-4.235-3.43-7.664-7.674-7.664c-4.236,0-7.665,3.428-7.665,7.664c0,2.103,0.848,4.003,2.219,5.39  l-6.847,11.527C59.004,34.271,60.114,34.937,61.138,35.716z M65.302,15.11c0.601-3.001,2.73-3.759,4.375-3.875  c0.502-0.036,0.7,0.642,0.256,0.88c-1.745,0.935-3.004,2.304-3.793,3.365C65.841,15.882,65.203,15.601,65.302,15.11z M84.828,45.393  c-3.298,0-6.091,2.096-7.175,5.017l-9.543-0.942c0,0.072,0.011,0.141,0.011,0.212c0,1.244-0.137,2.459-0.385,3.632l9.539,0.942  c0.577,3.66,3.728,6.466,7.552,6.466c4.235,0,7.663-3.428,7.663-7.663C92.49,48.825,89.062,45.393,84.828,45.393z M84.457,48.342  c-1.745,0.935-3.004,2.304-3.793,3.365c-0.299,0.402-0.937,0.121-0.838-0.37c0.601-3.001,2.73-3.759,4.375-3.875  C84.703,47.427,84.901,48.104,84.457,48.342z M58.493,75.538l-2.134-9.323c-1.204,0.419-2.457,0.72-3.764,0.87l2.137,9.324  c-2.45,1.282-4.141,3.815-4.141,6.773c0,4.235,3.428,7.661,7.672,7.661c4.235,0,7.663-3.428,7.663-7.661  C65.931,79.025,62.619,75.66,58.493,75.538z M57.44,78.943c-1.745,0.935-3.004,2.304-3.793,3.365  c-0.299,0.402-0.937,0.121-0.838-0.37c0.601-3.001,2.73-3.759,4.375-3.875C57.686,78.027,57.884,78.705,57.44,78.943z   M33.469,53.381l-11.879,3.98c-1.371-2.094-3.73-3.482-6.415-3.482c-4.236,0-7.665,3.43-7.665,7.665c0,4.24,3.428,7.67,7.665,7.67  c4.233,0,7.67-3.43,7.67-7.67c0-0.177-0.038-0.34-0.052-0.514l11.917-3.99C34.172,55.88,33.745,54.659,33.469,53.381z   M14.773,57.314c-1.745,0.935-3.004,2.304-3.793,3.365c-0.299,0.402-0.937,0.121-0.838-0.37c0.601-3.001,2.73-3.759,4.375-3.875  C15.019,56.398,15.217,57.076,14.773,57.314z"></path>
  </g>
  <g id="SvgjsG1389" featurekey="Q4qmbg-0" transform="matrix(2.8655833105664423,0,0,2.8655833105664423,92.0771050778789,-9.703395230144165)" fill="#19191B">
    <path d="M6.22 9.98 c2.9 0 4.82 2.18 4.82 5.1 s-2.12 5.08 -5.02 5.08 c-0.64 0 -1.72 -0.36 -2.04 -0.82 l0 0.66 l-2.96 0 l0 -14.52 l2.96 0 l0 5.34 c0.34 -0.5 1.62 -0.84 2.24 -0.84 z M5.82 17.92 c1.24 0 2.26 -1.28 2.26 -2.84 c0 -1.58 -1.02 -2.86 -2.26 -2.86 c-1.36 0 -2.24 1.54 -2.24 2.86 s0.9 2.84 2.24 2.84 z M12.487708333333332 15.76 l0 -5.64 l2.96 0 l0 5.64 c0 1.52 0.42 2.16 1.56 2.16 c1.2 0 1.9 -0.64 1.9 -2.16 l0 -5.64 l2.96 0 l0 9.88 l-2.96 0 l0 -0.9 c-0.56 0.7 -1.78 1.06 -2.64 1.06 c-2.78 0 -3.78 -1.32 -3.78 -4.4 z M30.335416666666664 10.12 l2.96 0 l0 9.58 c0 2.92 -2.14 5.28 -5.22 5.28 c-1.7 0 -2.98 -0.78 -4.1 -2.02 l2.1 -1.9 c0.62 0.92 1.18 1.48 2 1.48 c1.4 0 2.24 -1.54 2.24 -3.22 c-0.36 0.48 -1.42 0.82 -2.04 0.82 c-2.88 0 -5 -2.16 -5 -5.08 s2.12 -5.1 5 -5.1 c0.68 0 1.74 0.36 2.06 0.82 l0 -0.66 z M28.475416666666664 17.92 c1.34 0 2.26 -1.54 2.26 -2.86 c0 -1.34 -0.9 -2.86 -2.26 -2.86 c-1.22 0 -2.24 1.28 -2.24 2.86 c0 1.56 1.02 2.86 2.24 2.86 z M38.483125 15.8 c0 0.72 -0.02 1.92 1.08 1.92 c0.54 0 0.88 -0.22 1.26 -0.5 l0 2.44 c-0.46 0.26 -1.02 0.5 -1.62 0.5 c-2.54 0 -3.68 -1.08 -3.68 -4.36 l0 -3.24 l-1.1 0 l0 -2.44 l1.1 0 l0 -2.84 l2.96 0 l0 2.84 l2.34 0 l0 2.44 l-2.34 0 l0 3.24 z M49.17083333333333 10.26 l-0.4 2.22 c-0.74 -0.32 -0.88 -0.26 -1.22 -0.26 c-1.2 0 -1.9 0.64 -1.9 2.22 l0 5.56 l-2.96 0 l0 -9.88 l2.96 0 l0 0.88 c0.38 -0.68 1.42 -1.02 2.08 -1.02 c0.62 0 0.98 0.02 1.44 0.28 z M51.83854166666666 13.04 l-2.2 -1.26 c1.1 -1.24 2.58 -1.82 4.12 -1.82 c2.96 0 4.16 1.62 4.16 3.14 l0 6.9 l-2.96 0 l0 -0.7 c-0.46 0.48 -1.28 0.84 -2.2 0.84 c-2.7 0 -3.74 -1.2 -3.74 -3.04 c0 -2.08 1.68 -3.48 4.4 -3.48 l1.54 0 c0 -0.74 -0.56 -1.22 -1.4 -1.22 c-0.86 0 -1.28 0.16 -1.72 0.64 z M54.95854166666666 16.740000000000002 l0 -0.88 l-1.74 0 c-0.78 0 -1.36 0.54 -1.24 1.3 c0.08 0.54 0.56 0.76 1.24 0.76 c1.3 0 1.74 -0.74 1.74 -1.18 z M66.58624999999999 16.46 l2.08 1.88 c-1.12 1.24 -2.58 1.82 -4.14 1.82 c-2.88 0 -5.2 -2.16 -5.2 -5.08 s2.32 -5.1 5.2 -5.1 c1.56 0 3.02 0.58 4.14 1.82 l-2.08 1.88 c-0.44 -1.02 -1.4 -1.26 -2.06 -1.26 c-1.22 0 -2.24 1.08 -2.24 2.66 c0 1.56 1.02 2.64 2.24 2.64 c0.66 0 1.64 -0.18 2.06 -1.26 z M76.47395833333333 20 l-3.2 -4.06 c-0.08 0.08 -0.22 0.18 -0.34 0.28 l0 3.78 l-2.98 0 l0 -14.52 l2.98 0 l0 7.12 l2.84 -2.48 l4.42 0 l-4.78 4 c1.46 1.8 3.38 4.14 4.78 5.88 l-3.72 0 z M90.88166666666666 15.08 l0 0.66 l-7.04 0 c0 1.16 1.18 1.98 2.16 1.98 c0.96 0 1.84 -0.38 2.3 -1.22 l1.98 1.82 c-0.8 1.08 -2.02 1.84 -4.28 1.84 c-3.24 0 -5.22 -2.16 -5.22 -5.08 s1.92 -5.1 5.04 -5.1 s5.06 2.14 5.06 5.1 z M83.90166666666666 13.86 l3.88 0 c-0.16 -0.94 -0.84 -1.44 -1.96 -1.44 c-1.08 0 -1.74 0.58 -1.92 1.44 z M98.56937499999998 10.26 l-0.4 2.22 c-0.74 -0.32 -0.88 -0.26 -1.22 -0.26 c-1.2 0 -1.9 0.64 -1.9 2.22 l0 5.56 l-2.96 0 l0 -9.88 l2.96 0 l0 0.88 c0.38 -0.68 1.42 -1.02 2.08 -1.02 c0.62 0 0.98 0.02 1.44 0.28 z"></path>
  </g>
</svg>