<svg width="446" height="446" viewBox="0 0 446 446" fill="none" xmlns="http://www.w3.org/2000/svg">
<path fill-rule="evenodd" clip-rule="evenodd" d="M373.018 117.457C394.519 152.437 335.475 237.215 280.665 250.027C272.533 251.92 272.533 251.474 280.999 241.559C307.959 209.698 320.993 179.397 313.64 165.694C304.394 148.65 278.883 149.095 262.283 166.474C234.878 195.216 227.414 228.971 244.236 247.686L248.247 252.143L240.114 259.607C219.171 278.768 188.757 294.699 172.604 294.699H168.928C194.662 263.952 240.783 204.796 204.911 186.749C160.572 164.468 105.205 255.15 140.854 291.468L145.867 296.593C145.756 296.704 86.9351 345.721 68.7764 320.321C58.0817 305.393 63.8746 270.858 81.4762 243.564L84.9299 238.217C85.8211 236.769 85.4869 234.987 84.1501 233.984C71.1159 224.849 45.2704 276.986 49.8379 303.054C56.9677 343.939 104.648 347.616 150.992 310.741L159.793 303.834L165.92 304.948C191.877 309.738 227.972 295.145 256.045 268.408C264.178 260.61 264.512 260.498 268.299 261.501C327.232 277.432 423.595 163.021 389.06 117.791C383.379 110.55 363.995 102.863 373.018 117.457ZM298.489 166.808C299.938 181.513 287.238 206.245 264.734 233.093C256.045 243.454 255.599 243.565 253.706 235.544C248.692 214.489 271.864 172.267 292.585 164.803C298.155 162.798 298.044 162.798 298.489 166.808ZM201.346 196.218C207.585 212.483 182.742 261.278 155.337 286.79L152.551 289.352L149.321 282.89C141.968 267.851 145.199 244.567 157.342 226.297C171.713 204.573 197.781 186.749 201.346 196.218Z" fill="#5454D4"/>
</svg>
